<?xml version="1.0" standalone="no"?>
<!DOCTYPE svg PUBLIC "-//W3C//DTD SVG 20010904//EN"
 "http://www.w3.org/TR/2001/REC-SVG-20010904/DTD/svg10.dtd">
<svg version="1.0" xmlns="http://www.w3.org/2000/svg"
 width="1920.000000pt" height="1080.000000pt" viewBox="0 0 1920.000000 1080.000000"
 preserveAspectRatio="xMidYMid meet">

<g transform="translate(0.000000,1080.000000) scale(0.100000,-0.100000)"
fill="#E43636" stroke="none">
<path d="M9379 8609 c-154 -22 -317 -77 -480 -160 -473 -243 -807 -754 -836
-1276 l-6 -113 420 0 420 0 7 66 c16 159 87 305 207 425 133 134 288 200 469
200 115 0 188 -18 300 -72 114 -56 247 -187 303 -299 42 -84 77 -211 77 -277
l0 -43 425 0 425 0 -6 78 c-30 407 -181 746 -454 1023 -58 58 -139 131 -180
162 -203 149 -452 252 -695 287 -82 11 -316 11 -396 -1z"/>
<path d="M7090 4615 l0 -2435 2510 0 2510 0 0 2435 0 2435 -500 0 -500 0 -3
-1422 -3 -1423 -26 -106 c-14 -58 -45 -154 -68 -213 l-42 -106 29 -38 c48 -61
70 -103 92 -176 89 -291 -101 -610 -386 -645 -145 -18 -274 20 -377 112 l-50
43 -101 -42 c-224 -95 -478 -136 -723 -115 -732 61 -1333 655 -1392 1376 -6
70 -10 664 -10 1438 l0 1317 -480 0 -480 0 0 -2435z"/>
<path d="M8902 5693 l3 -1358 22 -78 c35 -124 87 -211 178 -302 135 -135 289
-200 475 -199 198 1 333 57 476 199 76 75 98 104 133 176 75 155 71 69 71
1572 l0 1347 -680 0 -681 0 3 -1357z"/>
</g>
</svg>
