<?xml version="1.0" standalone="no"?>
<!DOCTYPE svg PUBLIC "-//W3C//DTD SVG 20010904//EN"
 "http://www.w3.org/TR/2001/REC-SVG-20010904/DTD/svg10.dtd">
<svg version="1.0" xmlns="http://www.w3.org/2000/svg"
 width="1920.000000pt" height="1080.000000pt" viewBox="0 0 1920.000000 1080.000000"
 preserveAspectRatio="xMidYMid meet">

<g transform="translate(0.000000,1080.000000) scale(0.100000,-0.100000)"
fill="#000000" stroke="none">
<path d="M6475 8844 c-81 -9 -240 -46 -338 -80 -339 -118 -646 -378 -836 -709
-116 -202 -201 -498 -201 -697 l0 -68 420 0 420 0 0 25 c0 63 34 187 75 270
171 354 579 496 916 319 83 -44 202 -152 255 -231 51 -77 92 -182 105 -267 6
-39 13 -81 15 -93 l4 -23 421 0 421 0 -7 83 c-23 292 -110 551 -263 783 -223
339 -577 581 -970 664 -95 20 -344 34 -437 24z"/>
<path d="M4130 4845 l0 -2435 2510 0 2510 0 0 2435 0 2435 -500 0 -500 0 -3
-1427 c-3 -1320 -4 -1433 -20 -1500 -24 -97 -62 -215 -94 -285 l-25 -57 36
-47 c76 -99 105 -190 106 -325 0 -106 -24 -191 -78 -275 -163 -252 -489 -299
-708 -101 l-49 45 -58 -30 c-75 -38 -207 -80 -338 -110 -91 -20 -129 -23 -304
-22 -168 1 -215 4 -292 22 -148 35 -272 78 -377 131 -376 192 -648 504 -776
890 -73 221 -70 144 -70 1698 l0 1393 -485 0 -485 0 0 -2435z"/>
<path d="M5942 5923 l3 -1358 22 -78 c64 -226 231 -401 449 -473 78 -25 104
-29 209 -29 99 0 132 4 189 23 281 94 449 298 485 587 7 61 11 507 11 1388 l0
1297 -685 0 -686 0 3 -1357z"/>
<path d="M11920 5310 l0 -270 -205 0 -205 0 0 -135 0 -135 204 0 205 0 3 -537
c4 -516 5 -541 26 -616 60 -215 168 -331 357 -383 44 -12 121 -18 293 -21
l232 -6 0 131 0 130 -182 5 c-201 5 -247 15 -310 67 -42 34 -80 110 -97 188
-7 35 -11 222 -11 547 l0 495 300 0 300 0 0 135 0 135 -300 0 -300 0 0 270 0
270 -155 0 -155 0 0 -270z"/>
<path d="M10065 5080 c-354 -54 -633 -314 -737 -687 -19 -68 -22 -103 -22
-263 0 -168 3 -194 26 -282 90 -332 333 -583 643 -664 102 -27 322 -25 428 4
181 49 348 169 447 320 l50 76 0 -187 0 -187 150 0 150 0 0 915 0 915 -150 0
-150 0 0 -192 0 -193 -42 70 c-152 254 -483 402 -793 355z m368 -309 c299
-105 475 -377 454 -699 -20 -301 -226 -548 -508 -608 -94 -20 -239 -14 -329
15 -186 59 -346 218 -409 407 -27 82 -45 233 -36 313 25 231 161 434 355 530
47 23 114 48 150 56 89 20 246 13 323 -14z"/>
<path d="M13164 5026 c-3 -8 -4 -266 -1 -573 5 -593 7 -627 57 -780 41 -125
88 -202 180 -293 101 -101 184 -149 328 -187 87 -24 115 -27 267 -27 200 1
273 16 420 88 160 79 275 209 342 387 63 168 65 195 70 827 l5 572 -156 0
-155 0 -3 -562 c-4 -545 -5 -566 -26 -643 -67 -241 -203 -358 -442 -380 -280
-26 -479 108 -552 372 -21 75 -22 99 -26 646 l-3 567 -150 0 c-121 0 -151 -3
-155 -14z"/>
</g>
</svg>
